<svg xmlns="http://www.w3.org/2000/svg" width="25" height="24" fill="none" viewBox="0 0 25 24"><g clip-path="url(#a)"><path fill="#B93EDF" d="M12.5 24a12 12 0 1 0 0-24 12 12 0 0 0 0 24Z"/><path fill="#fff" d="M14.24 14.55a2.4 2.4 0 0 0-1.74-.63 2.4 2.4 0 0 0-1.74.63c-.19.2-.28.4-.32.69-.05.6-.03 1.2.04 1.81.07.74.19 1.72.34 2.72.1.7.2 1.1.28 1.37.13.45.63.83 1.4.83.78 0 1.27-.39 1.4-.83.09-.28.17-.66.28-1.37.16-1 .28-1.98.34-2.72.07-.77.1-1.26.04-1.81a1.1 1.1 0 0 0-.32-.7Zm-3.7-3.39a1.97 1.97 0 1 0 3.93 0 1.97 1.97 0 0 0-3.93 0Zm1.94-7.75a8.46 8.46 0 0 0-6.9 13.28 8.45 8.45 0 0 0 4.19 3.13.11.11 0 0 0 .09-.13l-.12-.86a.29.29 0 0 0-.17-.23 7.37 7.37 0 0 1 5.7-13.57 7.37 7.37 0 0 1 .17 13.57.29.29 0 0 0-.17.22l-.12.87a.11.11 0 0 0 .15.13 8.45 8.45 0 0 0-2.82-16.4Zm-.15 3.88a4.58 4.58 0 0 1 3.3 7.9.36.36 0 0 0-.1.28 7.54 7.54 0 0 1 0 1.02.11.11 0 0 0 .1.05l.06-.01a5.65 5.65 0 1 0-6.3.02.11.11 0 0 0 .11-.12 7.58 7.58 0 0 1-.01-.96.35.35 0 0 0-.11-.28 4.56 4.56 0 0 1 2.94-7.9Z"/></g><defs><clipPath id="a"><path fill="#fff" d="M.5 0h24v24H.5z"/></clipPath></defs></svg>