<svg xmlns="http://www.w3.org/2000/svg" width="25" height="24" fill="none" viewBox="0 0 25 24"><rect width="24" height="24" x=".5" fill="#FB9C67" rx="12"/><path fill="#fff" d="M7.83 17c-.36 0-.68-.13-.94-.4a1.25 1.25 0 0 1-.39-.93c0-.37.13-.68.4-.95.25-.26.57-.39.93-.39.37 0 .68.13.95.4.26.26.39.57.39.94 0 .36-.13.68-.4.94-.26.26-.57.39-.94.39Zm8 0c0-1.29-.24-2.5-.73-3.63a9.48 9.48 0 0 0-4.97-4.97 9.02 9.02 0 0 0-3.63-.73v-2a11.46 11.46 0 0 1 10.44 6.92c.6 1.37.9 2.84.9 4.41h-2Zm-4 0c0-1.48-.52-2.74-1.55-3.78a5.14 5.14 0 0 0-3.78-1.55v-2a7.16 7.16 0 0 1 5.2 2.14A7.4 7.4 0 0 1 13.82 17h-2Z"/></svg>