<svg xmlns="http://www.w3.org/2000/svg" width="25" height="24" fill="none" viewBox="0 0 25 24"><g clip-path="url(#a)"><path fill="#1DA1F2" d="M12.5 24a12 12 0 1 0 0-24 12 12 0 0 0 0 24Z"/><path fill="#fff" d="M10.3 18.33c5.33 0 8.24-4.41 8.24-8.23l-.01-.37a6.08 6.08 0 0 0 1.45-1.5c-.52.22-1.08.38-1.67.45a2.9 2.9 0 0 0 1.28-1.6c-.56.33-1.18.57-1.84.7a2.9 2.9 0 0 0-4.93 2.64A8.2 8.2 0 0 1 6.86 7.4a2.9 2.9 0 0 0 .9 3.86 2.84 2.84 0 0 1-1.3-.36v.03c0 1.4.99 2.57 2.31 2.84a2.88 2.88 0 0 1-1.3.05 2.89 2.89 0 0 0 2.7 2 5.82 5.82 0 0 1-4.29 1.2 8.06 8.06 0 0 0 4.42 1.31Z"/></g><defs><clipPath id="a"><path fill="#fff" d="M.5 0h24v24H.5z"/></clipPath></defs></svg>