<svg xmlns="http://www.w3.org/2000/svg" width="25" height="24" fill="none" viewBox="0 0 25 24"><g clip-path="url(#a)"><path fill="#FFBC0D" d="m24.27 9.15-.1-.47L20.21 8l2.3-3.11-.27-.3-3.38 1.63.43-4.31-.35-.2-2.07 3.48L14.58 0h-.4l.55 5.02L8.9.36 8.42.5l4.48 5.63-8.87-2.96-.4.45 7.92 4.5-10.93.92-.12.68 11.36 1.23-9.47 7.84.4.54 11.27-6.13L11.82 24h.7l4.31-10.16 2.63 7.96.47-.36-1.08-8.09 4.1 4.66.27-.42-3.14-5.78 4.39 1.63.04-.5-3.93-2.9 3.71-.89h-.02Z"/></g><defs><clipPath id="a"><path fill="#fff" d="M.5 0h24v24H.5z"/></clipPath></defs></svg>