<svg xmlns="http://www.w3.org/2000/svg" width="25" height="24" fill="none" viewBox="0 0 25 24"><g clip-path="url(#a)"><path fill="#08C" d="M12.5 24a12 12 0 1 0 0-24 12 12 0 0 0 0 24Z"/><path fill="#fff" d="m12.05 15.57-1.71 1.66a.9.9 0 0 1-.7.29c-.2-.01-.3-.1-.36-.28-.44-1.34-.88-2.68-1.3-4.03a.31.31 0 0 0-.24-.23l-3.05-.95a1.78 1.78 0 0 1-.45-.2c-.21-.15-.24-.38-.06-.55.18-.15.38-.28.6-.37l3.75-1.45 9.52-3.68c.6-.23 1.07.1 1 .75-.04.42-.15.83-.23 1.25l-2.07 9.76c-.17.77-.71.98-1.34.5a1410.8 1410.8 0 0 1-3.36-2.47Zm-2.4.99.05-.01.02-.1.2-2.2a.56.56 0 0 1 .19-.4l2.93-2.64 3.25-2.93c.06-.06.1-.17.14-.25-.1-.01-.21-.05-.3-.03-.13.03-.25.1-.36.18L8.6 12.69c-.13.09-.15.16-.1.3.18.51.33 1.03.5 1.54l.66 2.03Z"/></g><defs><clipPath id="a"><path fill="#fff" d="M.5 0h24v24H.5z"/></clipPath></defs></svg>