<svg xmlns="http://www.w3.org/2000/svg" width="25" height="24" fill="none" viewBox="0 0 25 24"><g clip-path="url(#a)"><path fill="red" d="M12.5 24a12 12 0 1 1 0-24 12 12 0 0 1 0 24Z"/><path fill="#fff" d="M20.14 8.14a2 2 0 0 0-1.41-1.42c-1.25-.34-6.23-.34-6.23-.34s-4.98 0-6.22.34a2 2 0 0 0-1.41 1.42C4.53 9.39 4.53 12 4.53 12s0 2.61.34 3.86a2 2 0 0 0 1.4 1.42c1.25.34 6.23.34 6.23.34s4.98 0 6.23-.34a2 2 0 0 0 1.4-1.42c.34-1.25.34-3.86.34-3.86s0-2.61-.33-3.86Zm-9.27 6.23V9.63L15.03 12l-4.16 2.37Z"/></g><defs><clipPath id="a"><path fill="#fff" d="M.5 0h24v24H.5z"/></clipPath></defs></svg>